<svg viewBox="0 0 820 470" xmlns="http://www.w3.org/2000/svg" role="img" aria-labelledby="t1 d1" preserveAspectRatio="xMidYMid meet">
<title id="t1">Anatomy of a projection chart</title>
<desc id="d1">Schematic time series from 2020 to 2100 showing two CMIP6 scenario bands. Each band has a thick central mean line inside a shaded envelope representing the 17 to 83 percent inter-model spread. The two bands overlap heavily before 2050 and diverge by 2100. Four callouts label the ensemble mean, the inter-model spread, the scenario uncertainty between bands, and the near-term region where internal variability dominates.</desc>

<rect x="80" y="60" width="640" height="300" fill="none" stroke="#D3D1C7" stroke-width="0.5"/>

<g stroke="#D3D1C7" stroke-width="0.5">
<line x1="80" y1="110" x2="720" y2="110"/>
<line x1="80" y1="160" x2="720" y2="160"/>
<line x1="80" y1="210" x2="720" y2="210"/>
<line x1="80" y1="260" x2="720" y2="260"/>
<line x1="80" y1="310" x2="720" y2="310"/>
</g>

<g font-family="system-ui, -apple-system, 'Segoe UI', Roboto, sans-serif" font-size="11" fill="#5F5E5A" text-anchor="end">
<text x="72" y="64">6</text>
<text x="72" y="114">5</text>
<text x="72" y="164">4</text>
<text x="72" y="214">3</text>
<text x="72" y="264">2</text>
<text x="72" y="314">1</text>
<text x="72" y="364">0</text>
</g>

<g font-family="system-ui, -apple-system, 'Segoe UI', Roboto, sans-serif" font-size="11" fill="#5F5E5A" text-anchor="middle">
<text x="80" y="380">2020</text>
<text x="240" y="380">2040</text>
<text x="400" y="380">2060</text>
<text x="560" y="380">2080</text>
<text x="720" y="380">2100</text>
</g>

<text x="40" y="55" font-family="system-ui, -apple-system, 'Segoe UI', Roboto, sans-serif" font-size="11" fill="#5F5E5A">°C above 1991–2020</text>

<polygon points="80,320 160,290 240,255 320,220 400,182.5 480,145 560,110 640,80 720,60 720,205 640,220 560,240 480,265 400,287.5 320,305 240,320 160,335 80,350" fill="#FAC775" fill-opacity="0.45" stroke="none"/>

<polygon points="80,320 160,297.5 240,272.5 320,247.5 400,227.5 480,210 560,197.5 640,182.5 720,172.5 720,277.5 640,282.5 560,292.5 480,300 400,307.5 320,317.5 240,327.5 160,337.5 80,350" fill="#85B7EB" fill-opacity="0.55" stroke="none"/>

<polyline points="80,335 160,312.5 240,287.5 320,262.5 400,235 480,205 560,175 640,150 720,130" fill="none" stroke="#854F0B" stroke-width="2.5" stroke-linecap="round" stroke-linejoin="round"/>

<polyline points="80,335 160,317.5 240,300 320,282.5 400,267.5 480,255 560,245 640,232.5 720,225" fill="none" stroke="#185FA5" stroke-width="2.5" stroke-linecap="round" stroke-linejoin="round"/>

<line x1="80" y1="360" x2="720" y2="360" stroke="#2C2C2A" stroke-width="1"/>
<line x1="80" y1="60" x2="80" y2="360" stroke="#2C2C2A" stroke-width="1"/>

<g font-family="system-ui, -apple-system, 'Segoe UI', Roboto, sans-serif" font-size="12">
<rect x="540" y="395" width="14" height="3" fill="#854F0B"/>
<text x="560" y="399" fill="#2C2C2A">SSP5-8.5</text>
<rect x="540" y="412" width="14" height="3" fill="#185FA5"/>
<text x="560" y="416" fill="#2C2C2A">SSP2-4.5</text>
<rect x="630" y="392" width="14" height="10" fill="#FAC775" fill-opacity="0.45"/>
<text x="650" y="400" fill="#5F5E5A" font-size="11">spread</text>
<rect x="630" y="410" width="14" height="10" fill="#85B7EB" fill-opacity="0.55"/>
<text x="650" y="418" fill="#5F5E5A" font-size="11">spread</text>
</g>

<g stroke="#5F5E5A" stroke-width="0.75" fill="none">
<path d="M 220 100 Q 300 100 400 235"/>
<path d="M 470 90 Q 540 95 560 130"/>
<path d="M 730 175 L 725 175 L 725 130 M 725 175 L 725 225"/>
<path d="M 150 425 Q 150 380 160 320"/>
</g>

<g font-family="system-ui, -apple-system, 'Segoe UI', Roboto, sans-serif" font-size="12" fill="#2C2C2A">
<text x="100" y="92">Ensemble mean</text>
<text x="100" y="106" font-size="11" fill="#5F5E5A">central line through model average</text>

<text x="370" y="82">Inter-model spread</text>
<text x="370" y="96" font-size="11" fill="#5F5E5A">17–83% range across models</text>

<text x="738" y="173">Scenario</text>
<text x="738" y="187">uncertainty</text>
<text x="738" y="203" font-size="11" fill="#5F5E5A">gap between SSPs</text>

<text x="100" y="418">Near-term: internal variability dominates</text>
<text x="100" y="432" font-size="11" fill="#5F5E5A">bands overlap; emissions choice barely matters yet</text>
</g>
</svg>
